PathFileType	4	(X/Y/Z)	Apose_0-50.trc
DataRate	CameraRate	NumFrames	NumMarkers	Units	OrigDataRate	OrigDataStartFrame	OrigNumFrames
30	30	8	22	m	30	0	50
Frame#	Time	Hip			RHip			RKnee			RAnkle			RBigToe			RSmallToe			RHeel			LHip			LKnee			LAnkle			LBigToe			LSmallToe			LHeel			Neck			Head			Nose			RShoulder			RElbow			RWrist			LShoulder			LElbow			LWrist		
		X1	Y1	Z1	X2	Y2	Z2	X3	Y3	Z3	X4	Y4	Z4	X5	Y5	Z5	X6	Y6	Z6	X7	Y7	Z7	X8	Y8	Z8	X9	Y9	Z9	X10	Y10	Z10	X11	Y11	Z11	X12	Y12	Z12	X13	Y13	Z13	X14	Y14	Z14	X15	Y15	Z15	X16	Y16	Z16	X17	Y17	Z17	X18	Y18	Z18	X19	Y19	Z19	X20	Y20	Z20	X21	Y21	Z21	X22	Y22	Z22
1	0.03333333333333333	0.04870588214802152	0.9223494916719427	0.37084200961878094	0.045009210971461155	0.8824083405099618	0.4799076250596917	0.012588901669085944	0.5107925920266391	0.49632428294031894	-0.005123325727654442	0.11382787801003937	0.5166892913366817	0.1889388939269686	0.04881195901109201	0.5643804941450139	0.14948495752844412	0.024881903443918923	0.613428157673588	-0.045403747804503056	0.043955859755541886	0.4963596213079087	0.04916227327144827	0.8819605476583541	0.26438746711782557	0.025787095877973117	0.5094324982471542	0.23054887020377104	0.0013244202870145456	0.12364644218513413	0.20701842227639775	0.21198226490858343	0.0489441716305885	0.18584579531523096	0.1755932104932403	0.029556813274191372	0.13981525564883235	-0.038207050677673014	0.046754756416077785	0.2199622715947963	0.045450201947706236	1.5834596750711953	0.3569667790853856	0.2368870678228781	1.8218415787306548	0.26227938548002006	0.20912227525977392	1.64839754898621	0.3279744233228369	0.027612487818295908	1.4939032915671686	0.551375767680367	0.10856261733467393	1.2337813366377333	0.7306342073636503	0.17851446591018016	1.0407393231681812	0.8929807009371522	0.0013255757509885039	1.483644397612951	0.16831336802195754	0.025896756646439468	1.2270245032314973	0.010838237065938212	0.08193323626626785	1.0207699632217897	-0.1343489966951456
2	0.06666666666666667	0.05134577687339372	0.923402339236858	0.37078789179330746	0.04407558038656924	0.8807349087356339	0.4764109261103625	0.015183972139269654	0.510387833896079	0.49712407776872164	-0.005013134797414429	0.11196306657869623	0.5180963711716824	0.18707578764877023	0.03318175226179293	0.5510733446816353	0.1448224534862068	0.03475808912651795	0.6219245853418711	-0.04245129117371436	0.03785715096439614	0.49925799576262864	0.04612352081537029	0.8815193856653128	0.26084828264357635	0.024411974526388623	0.508413054734321	0.23236553470083826	0.006756537596039782	0.11662067199420234	0.20873777508424168	0.20831067370684683	0.036211914700397675	0.19364244116375692	0.16245803482600257	0.03557498171945528	0.1254330970569545	-0.040372547523510355	0.042455027890991044	0.21775870403868938	0.04357320929504352	1.581764479432992	0.35741797194148367	0.1666739810314772	1.8086090564449149	0.3375162472766143	0.20990788991792467	1.638558904337471	0.3331518923834035	0.025309355855059234	1.490372853176394	0.551155853673649	0.10479204546757863	1.23335845854803	0.726242125182859	0.17119874917846326	1.0426415991332374	0.8911218305435317	0.004026785791346637	1.4803404924753842	0.16001754731001339	0.028450374906107998	1.2263804516463794	0.015044861920661193	0.08308253974545213	1.017476265399191	-0.13690683398486814
3	0.1	0.04157845545932713	0.9240534870120046	0.36786415858466	0.032618646182013745	0.8841648843805923	0.4732011522594825	0.012565424679232842	0.5078131263802877	0.5008078894191375	-0.006171759892546385	0.11390249391292988	0.5183501484541206	0.17962533376471174	0.03358221885917602	0.5532349574047547	0.14603303809562604	0.03637684939762648	0.6253052728340452	-0.04048191078242887	0.040604961029945215	0.49717639109238354	0.03615685142163058	0.8808463550978148	0.255187142439722	0.020044527917046223	0.5095462101347037	0.23008313365271305	0.007457108776620256	0.11520341237666216	0.2084422275914818	0.22005427095994143	0.04852444049106565	0.18701790098159646	0.16366390367745923	0.03765996590210778	0.12493431746015085	-0.035560234895396385	0.04441999125037015	0.21845220666015383	0.062106957646155495	1.5988211986042136	0.3634325526822736	0.24081628095691318	1.7725933628069208	0.3492606035097264	0.22732414857738845	1.5885819980963256	0.3297603741230786	0.023430314773488517	1.4935222470427287	0.545327970790553	0.09044686568268039	1.235041964183535	0.7252167740296019	0.150053495992954	1.0452912609624627	0.8978266575113216	0.010015969065861989	1.4822706083314106	0.15447027433998145	0.016258025546872435	1.2296533593450547	0.0070530757188597085	0.056359340212270355	1.0147626467664055	-0.14667484187876587
4	0.13333333333333333	0.03741516310612867	0.9243760671211303	0.36457194027033407	0.02879245379086622	0.8840882274120502	0.4713704826994421	0.008296381182893714	0.5081830325008619	0.5011729762469918	-0.005431012528475578	0.11026632454786957	0.5149245632096608	0.19169596961050442	0.033055984716940386	0.5594351995025298	0.14695651615437616	0.03269303085034907	0.6269141845848701	-0.03856380839250249	0.03694083447625756	0.4956288644348155	0.031849922770691264	0.8856864856430764	0.2534240161990401	0.015089193056701014	0.5093408992641083	0.22894640736558583	0.008048230584493915	0.11499462450299094	0.21065737403672533	0.217600462176152	0.0439688722769959	0.1895824258191363	0.16585609447487923	0.03391998961824489	0.12463474992051096	-0.045216842410985066	0.05502069844866184	0.20269833396611106	0.0667336452243269	1.5972929344759277	0.3666417059977431	0.24711705948724372	1.7627024689382416	0.3429126084376915	0.22715407716272673	1.5781961239742825	0.33016145592332563	0.02787412523681746	1.4947132248661656	0.545998804016234	0.08700907642366645	1.235874719497417	0.7260911793294681	0.13831290442443867	1.0451538045107058	0.8995730680292128	0.010781198854469222	1.4823606447444313	0.1552241906991393	0.012932040449206983	1.2317796037922568	0.005504047239138762	0.050001872753912956	1.0171845825100616	-0.14717932991252228
5	0.16666666666666666	0.03417643217118063	0.9243771883685855	0.3661835176696822	0.025012086204421555	0.8847879874570388	0.470924766083559	0.0037432940922813187	0.5079545019366098	0.5006660738732018	-0.005589083218961868	0.10936922405051197	0.5150722929538156	0.18841118745009322	0.03285664518870695	0.5604302095810575	0.14494452445713535	0.03056401937244663	0.6290899508705063	-0.039348264869636634	0.034942473547045126	0.49693693393884664	0.0297489843706642	0.8863069365224883	0.2554271125664369	0.010829414625144262	0.5103904299337244	0.2297567956902137	0.002680863717174535	0.12190917391399844	0.2088233600724251	0.21895959834343914	0.04576530684246176	0.19170642924053066	0.16804555592056622	0.03561267007002363	0.12662174823496533	-0.052543469646930324	0.0404598681029761	0.20509290920205603	0.05548070889206216	1.5743797607555947	0.35588835362232263	0.33669819769167886	1.7712165137504674	0.2628475288765397	0.23275686066682438	1.5738652760087615	0.33179745718255077	0.0263020891063079	1.4954567581563445	0.5451839349064408	0.08486103031412627	1.2365247631221747	0.7280517897169361	0.13489600947542169	1.047616943212474	0.9005084845492647	0.0160837565345249	1.4844138171596073	0.1530142390910573	0.01262333049639512	1.2323192792478666	0.004422724811067746	0.04759118853568031	1.0143989231386905	-0.14920634518736167
6	0.2	0.03404579893989432	0.9266456445941686	0.3650149183062584	0.024742783416439117	0.8871386840608007	0.46761257632080755	0.004826986699805868	0.5102904722001049	0.5005239299232591	-0.004805223137845882	0.11076973347914697	0.5157874888776481	0.20088465640637346	0.032063777863429954	0.5666677405049912	0.1527160499229911	0.021581064651376804	0.6266775648540501	-0.03715734947882756	0.03577931454951163	0.4963333198987439	0.028664916504512705	0.8911547004926674	0.25259913971899167	0.00903222382205072	0.511567503321303	0.23007101394271157	0.007385513884688533	0.11565295544844194	0.20989181286358882	0.21550340942784327	0.04384405432540635	0.1906661395857666	0.164804862813861	0.033891110146795536	0.12561917798585615	-0.0413123881019765	0.05790276498125786	0.1986197735747668	0.05705391461713318	1.5746389483159953	0.35520699244749687	0.2578164071183585	1.7585024614447677	0.340761074377123	0.3166160555142987	1.6201061387345905	0.3387133784706562	0.0210684072755574	1.4966367842923878	0.5411693756159596	0.0817775127323454	1.2356223888671982	0.7280653767193291	0.13372910763740492	1.0457981069047955	0.9033444001546771	0.018211050295059622	1.4852895734231006	0.155084157422513	0.01052965899087111	1.2319987533773802	0.005438977298709207	0.04657333197385972	1.015703873604104	-0.15017333956983062
7	0.23333333333333334	0.033765436133058546	0.9272108002515154	0.36210221640268275	0.024390211691591595	0.8937873762658539	0.4657290630872281	0.0011620694205265458	0.5091290845996836	0.4991148753487413	-0.005187432016694689	0.1122171927688444	0.5159950020867009	0.20053189106781025	0.02897843753056706	0.5676530455847522	0.15045137405382286	0.01764420512009442	0.6286368520109636	-0.038250521524543515	0.03572403401822677	0.49709244275184633	0.026473621599301216	0.9003183346912219	0.2463026169820098	0.007402271778577813	0.5134865780202609	0.22612835016402302	-0.0005102966320340932	0.1255961401298421	0.2075933057257609	0.21438646800577815	0.04684362769117753	0.19113484659597602	0.16412482710986767	0.03536426353947829	0.1270554445625893	-0.05297844385009676	0.041600633514564306	0.20746842427979925	0.058414202351841575	1.5697742940914625	0.35321994355525654	0.26470144413896723	1.7603917579019759	0.33447043423838557	0.31569819791304266	1.6185023569142922	0.3373582184870932	0.019796599929335565	1.4997927733491558	0.5376071245091122	0.060191698231858076	1.2362319838366207	0.7224950603460041	0.13273020985996464	1.050281935949241	0.9023211292937027	0.01742237435513778	1.4845634911585561	0.15788468133431333	0.010070418983712527	1.232508560336342	0.005304108190436466	0.046292633331040334	1.0137736591378201	-0.15115079491606934
8	0.26666666666666666	0.03305746987888965	0.9266133601643642	0.36067280665756485	0.02453052211597691	0.8906807367938969	0.4663136672421212	0.002156926901846864	0.5078756349889956	0.500620062794458	-0.0051687892275697435	0.11003880655195315	0.5158905808867779	0.19969055169616523	0.0406931023418164	0.5638273111455012	0.15045174527166316	0.017598112672535148	0.6273379357202231	-0.04938540481260678	0.048065838433514384	0.5093162811193364	0.02484779859838815	0.8964462954888732	0.24524625120890067	0.007142746836550917	0.5126519619786201	0.2262796734796968	0.006599556905534001	0.11531571787512343	0.20979572429580454	0.21517772601437882	0.045080903103898104	0.1919066020178331	0.16558770052517408	0.0351045765573288	0.12595881523596827	-0.042764173568821624	0.05739846789488782	0.19601620567663494	0.05844671471936299	1.5717739531868988	0.3529789340705822	0.2636507225036852	1.7601237292712684	0.33801552126350126	0.31564637485488045	1.6179475405869774	0.3372696677314841	0.021432685198528048	1.4999066602089721	0.5380594354075632	0.061180966798188706	1.235127820301654	0.7243401999102449	0.12777460181566466	1.0472783075977707	0.9027069532897446	0.02012878137602881	1.485844312441995	0.1559231917855628	0.011792657689639266	1.2326356355362804	0.0043016472868872375	0.04591833155959033	1.0114050071522087	-0.15265156547644637
